<?xml version="1.0" encoding="iso-8859-1"?>
<!-- Generator: Adobe Illustrator 16.0.0, SVG Export Plug-In . SVG Version: 6.00 Build 0)  -->
<!DOCTYPE svg PUBLIC "-//W3C//DTD SVG 1.1//EN" "http://www.w3.org/Graphics/SVG/1.1/DTD/svg11.dtd">
<svg version="1.1" id="Capa_1" xmlns="http://www.w3.org/2000/svg" xmlns:xlink="http://www.w3.org/1999/xlink" x="0px" y="0px"
	 width="200.278px" height="200.278px" viewBox="0 0 200.278 200.278" style="enable-background:new 0 0 200.278 200.278;"
	 xml:space="preserve">
<g>
	<path d="M163.57,197.837c-0.39-1.918-3.922-2.911-4.811-3.118c-4.969-2.362-7.703-6.017-8.354-11.155
		c-0.384-2.947-0.122-6.862,0.171-10.997c0.316-4.579,0.646-9.304,0.121-13.201c-0.712-5.432-2.746-8.482-4.237-10.724
		c-0.621-0.919-1.17-1.734-1.474-2.514c-1.121-2.734-1.291-9.013-0.92-12.318c0.141-1.353,0.451-3.283,0.676-4.793
		c0.146-0.968,0.286-1.771,0.323-2.143c1.022-8.574-0.512-14.968-1.255-17.403c-1.352-5.249-6.156-16.669-6.399-17.232
		c-0.73-1.422-2.74-9.228-0.858-14.392c1.449-3.977,5.87-9.234,9.444-13.46c2.569-3.057,4.585-5.483,5.108-6.966
		c0.171-0.637,3.952-15.434-3.307-17.635c-3.744-1.988-13.609-7.937-14.967-11.764l0.231-2.302c0.183-0.424,0.621-1.666,0.694-3.361
		c0.901-0.755,2.886-2.798,2.46-6.235c0.085-0.548,0.194-1.79-0.427-2.53c-0.304-0.368-0.73-0.563-1.205-0.575
		c0.194-2.231,0.158-6.396-2.204-9.46c-1.693-2.198-4.275-3.397-7.697-3.559c-4.152,0.024-12.032,2.095-12.032,9.697
		c0,0.238,0.171,2.338,0.305,3.97c-0.646-0.019-1.084,0.268-1.278,0.505c-0.204,0.238-0.433,0.661-0.354,1.197
		c-0.024,1.011-0.073,5.8,2.338,7.029c0.22,1.395,0.865,4.394,2.363,5.712l0.085,3.763l-3.77,2.216
		c-1.178-0.587-4.384-1.948-8.342-1.948c-4.217,0-7.919,1.516-11.049,4.515c-2.57,0.027-12.921,0.381-16.624,4.957
		c-2.195-0.996-9.173-3.846-20.533-5.456c-1.428-0.192-4.055-1.507-5.176-2.755c-0.298-1.197-1.741-6.284-5.574-6.284
		c-0.697,0-1.428,0.173-2.189,0.529c-2.046,0.959-5.504,5.045-6.098,8.687c-0.28,1.708,0.131,3.142,1.242,4.214
		c0.106,0.082,2.618,1.981,5.91,1.981c1.142,0,2.238-0.228,3.279-0.679c0.606,0.137,2.235,0.654,4.016,2.226
		c0.438,0.42,10.762,10.395,23.988,10.395c0.5,0,1.005-0.013,1.516-0.043c0.716,0.231,3.654,1.147,8.717,2.451
		c1.257,0.332,3.179,0.755,5.343,0.755c3.23,0,5.979-0.962,8.193-2.862c0.28,1.982,1.011,5.188,2.898,8.598l-7.45,0.088
		c-0.828-0.831-3.093-2.877-5.044-2.877c-0.88,0-1.608,0.387-2.107,1.136c-1.471,0.611-4.969,2.271-5.264,4.372
		c-0.061,0.459,0,1.115,0.563,1.739c-0.219,0.986-0.17,2.35,0.911,3.218c-0.052,0.381-0.04,0.828,0.143,1.315
		c0.155,0.444,0.523,1.041,1.327,1.522c0.487,1.434,2.655,3.248,8.169,1.428c0.119-0.058,1.06-0.563,1.845-1.879
		c1.434,0.171,5.146,0.749,7.846,2.122c0.048,0.131,0.122,0.21,0.204,0.317c-0.131,0.661-0.344,1.678-0.612,3.011
		c-0.131,0.137-0.198,0.338-0.21,0.536c-0.018,0.313-0.07,0.593-0.106,0.874c-0.037,0.244-0.083,0.487-0.094,0.648
		c-0.311,1.601-0.661,3.456-1.017,5.395c-0.079,0.256-0.143,0.53-0.216,0.804c-0.125,0.441-0.231,0.898-0.387,1.248
		c-1.896,4.406-5.194,12.23-5.225,12.304c-5.9,18.035-3.65,24.825-1.266,32.028l0.375,1.108c0.536,1.632,0.642,4.762,0.715,7.514
		c0.076,1.961,0.131,3.812,0.332,5.066c0.804,4.981,2.631,15.649,3.873,20.362c1.352,5.066,2.898,8.646,4.144,11.521
		c1.742,4.043,2.719,6.284,1.61,8.878c-0.194,0.402-1.714,1.9-2.999,3.009c-0.088,0.085-0.143,0.158-0.201,0.256
		c-1.653,2.971-6.622,3.153-6.665,3.153c-0.131,0-0.256,0.037-0.368,0.085c-2.469,1.109-3.599,2.187-3.553,3.361
		c0.037,1.255,1.364,1.803,1.452,1.827c0.387,0.171,1.154,0.401,3.279,0.401c3.437,0,8.199-0.584,8.406-0.621
		c0.155-0.012,0.305-0.072,0.423-0.158c0.5-0.365,1.891-0.974,5.544-0.974c2.362,0,4.493,0.268,4.524,0.268
		c0.036,0.013,0.225,0.013,0.268,0.013c1.668,0,2.527-0.743,2.983-1.389c1.474-2.131,0.158-5.846,0.037-6.174l-0.22-0.841
		c-1.084-4.263-3.653-14.2-2.387-18.45c1.461-4.932,1.668-12.909,1.157-16.233c-0.524-3.508-4.067-9.634-5.061-11.302
		c3.318-7.648,6.181-19.242,7.562-25.295c0.293,1.219,0.604,2.467,0.907,3.715c0.78,3.288,1.547,6.491,2.132,8.769
		c3.057,11.801,7.879,16.55,9.535,17.89c-3.976,14.882-0.834,20.776,3.051,25.977c4.688,6.26,6.479,15.661,6.771,17.324
		c-0.749,1.856-0.779,3.951-0.792,4.037c0,0.115,0.03,0.207,0.067,0.322c0.663,1.894,3.245,2.85,7.69,2.85
		c0.676,0,1.212-0.024,1.498-0.055c3.318,1.182,8.086,1.346,10.668,1.346c0.841,0,1.352-0.024,1.352-0.024
		c0.183,0,0.384-0.067,0.524-0.183C163.595,199.249,163.68,198.396,163.57,197.837z M138.751,100.629l-19.912,12.118L97.694,99.442
		c0.195-0.469,0.417-1.005,0.673-1.611h14.419c0.524,0,0.938-0.417,0.938-0.929c0-0.523-0.414-0.935-0.938-0.935H99.168
		c0.28-0.654,0.561-1.333,0.853-2.021h14.52c0.523,0,0.938-0.411,0.938-0.935c0-0.512-0.414-0.929-0.938-0.929h-13.716
		c0.369-0.861,0.707-1.678,1.035-2.42h32.787c0.354,1.586,0.768,2.85,1.06,3.413C135.73,93.118,137.204,96.623,138.751,100.629z
		 M94.504,71.508c-0.387,0.012-0.768,0.18-0.923,0.536c-0.523,1.12-1.218,1.546-1.181,1.546c-1.388,0.435-2.566,0.655-3.516,0.655
		c-1.976,0-2.156-0.962-2.168-1.057c-0.024-0.347-0.231-0.646-0.557-0.798c-0.99-0.447-0.904-1.078-0.758-1.4
		c0.11-0.226,0.11-0.487,0.024-0.725c-0.088-0.231-0.268-0.417-0.487-0.523c-0.935-0.417-0.523-1.629-0.429-1.852
		c0.162-0.387,0.037-0.849-0.301-1.105c-0.161-0.131-0.365-0.304-0.341-0.454c0.112-0.792,2.399-2.22,4.384-3.008
		c0.21-0.085,0.384-0.234,0.484-0.43c0.213-0.411,0.444-0.441,0.648-0.441c1.124,0,3.017,1.583,3.967,2.582
		c0.173,0.186,0.454,0.322,0.685,0.298l8.878-0.101c0.183,0.195,0.42,0.326,0.676,0.326c0.204,0,0.411-0.082,0.597-0.213
		c10.646-8.616,24.811-4.933,24.956-4.89c0.28,0.094,0.585,0.033,0.816-0.149c0.231-0.173,0.365-0.447,0.365-0.74
		c0-8.75,3.459-11.435,3.556-11.511c0.414-0.305,0.524-0.886,0.231-1.303c-0.292-0.411-0.876-0.536-1.303-0.231
		c-0.171,0.119-4.031,2.874-4.335,11.865c-3.642-0.722-14.968-2.149-24.491,4.847c-3.23-5.383-3.312-10.494-3.312-10.537
		c-0.006-0.393-0.25-0.743-0.63-0.886c-0.362-0.131-0.779-0.024-1.023,0.274c-2.061,2.451-4.832,3.684-8.235,3.684
		c-1.952,0-3.724-0.393-4.883-0.686c-5.706-1.458-8.747-2.463-8.771-2.469c-0.125-0.037-0.231-0.037-0.362-0.043
		c-0.53,0.031-1.054,0.049-1.571,0.049c-12.446,0-22.566-9.758-22.709-9.895c-2.731-2.399-5.176-2.75-5.273-2.762
		c-0.17-0.021-0.375,0.012-0.545,0.085c-0.871,0.411-1.793,0.643-2.755,0.643c-2.606,0-4.689-1.54-4.701-1.54
		c-0.594-0.566-0.792-1.383-0.618-2.481c0.469-2.887,3.443-6.528,5.051-7.295c0.5-0.231,0.962-0.356,1.391-0.356
		c2.688,0,3.772,4.984,3.772,5.033c0.037,0.137,0.106,0.28,0.186,0.393c1.386,1.723,4.57,3.331,6.516,3.604
		c13.308,1.875,20.603,5.575,20.673,5.605c0.411,0.219,0.971,0.082,1.215-0.356c2.262-3.739,10.936-4.737,15.893-4.737l0,0
		c0,0,0.012,0,0.018,0c0.25,0,0.481-0.113,0.664-0.274c2.804-2.819,6.172-4.247,10.002-4.247c4.394,0,7.879,1.934,7.903,1.945
		c0.305,0.149,0.658,0.162,0.938-0.012l4.689-2.743c0.292-0.168,0.475-0.487,0.462-0.831l-0.104-4.78
		c-0.024-0.338-0.188-0.643-0.48-0.798c-0.975-0.551-1.741-3.373-1.973-5.215c-0.049-0.387-0.342-0.71-0.731-0.792
		c-1.06-0.216-1.546-3.118-1.498-5.212c0.146,0.052,0.305,0.106,0.391,0.143c0.304,0.144,0.651,0.113,0.938-0.079
		c0.268-0.195,0.42-0.512,0.384-0.85c0,0-0.384-4.725-0.384-5.118c0-7.645,9.736-7.818,10.102-7.825
		c2.801,0.128,4.908,1.096,6.266,2.835c2.783,3.592,1.645,9.465,1.632,9.508c-0.073,0.381,0.086,0.755,0.384,0.962
		c0.323,0.22,0.719,0.213,1.035,0.006c0.195-0.131,0.348-0.201,0.42-0.238c0.043,0.244,0.043,0.649-0.024,0.98
		c-0.024,0.098-0.024,0.198-0.012,0.299c0.45,3.206-1.924,4.801-2.016,4.856c-0.274,0.17-0.426,0.475-0.426,0.794
		c0,1.912-0.585,3.185-0.597,3.197c-0.043,0.106-0.08,0.201-0.092,0.311l-0.268,2.646c-0.013,0.125,0,0.243,0.036,0.368
		c1.559,5.243,14.468,12.264,16.1,13.119c3.86,1.178,3.557,8.086,2.801,12.638c-0.012,0.006-0.024,0.012-0.024,0.012
		c-4.237,12.477-18.157,13.381-18.304,13.393c-0.231,0.012-0.438,0.113-0.597,0.255c-10.084,9.673-22.85,7.539-26.187,6.759
		c-0.061-0.061-0.097-0.137-0.167-0.186C100.876,72.062,94.76,71.526,94.504,71.508z M102.782,86.776
		c0.38-2.046,0.736-3.885,1.062-5.575c0.012-0.225,0.049-0.429,0.085-0.648c0.024-0.18,0.052-0.38,0.076-0.572
		c0.073-0.107,0.131-0.219,0.143-0.35c0.268-1.34,0.475-2.411,0.636-3.142c1.428,0.304,3.785,0.697,6.856,0.697
		c5.772,0,13.615-1.446,20.362-7.794c1.267-0.131,5.712-0.815,10.188-3.373c-3.045,3.724-6.15,7.794-7.398,11.195
		c-1.188,3.261-1.023,7.307-0.5,10.543h-31.772c0.012-0.058,0.039-0.106,0.052-0.149C102.615,87.37,102.69,87.12,102.782,86.776z
		 M109.666,143.941c0.039,0.079,4.509,7.41,5.057,11.027c0.476,3.093,0.28,10.82-1.096,15.442
		c-1.413,4.737,1.157,14.675,2.375,19.437l0.243,0.925c0.305,0.828,0.999,3.435,0.207,4.562c-0.098,0.128-0.401,0.572-1.474,0.585
		c-0.098-0.013-2.253-0.281-4.749-0.281c-3.005,0-5.164,0.385-6.418,1.176c-0.977,0.115-5.036,0.578-7.943,0.578
		c-1.839,0-2.399-0.194-2.582-0.273c-0.073-0.024-0.237-0.135-0.292-0.135h-0.012c0,0,0.167-0.572,2.302-1.546
		c1.06-0.073,5.94-0.548,7.968-3.97c0.971-0.854,2.993-2.691,3.373-3.594c1.429-3.324,0.22-6.113-1.595-10.339
		c-1.23-2.825-2.743-6.345-4.067-11.265c-1.221-4.641-3.036-15.211-3.815-20.168c-0.186-1.145-0.244-2.935-0.316-4.828
		c-0.101-3.021-0.195-6.15-0.819-8.038l-0.368-1.114c-2.387-7.191-4.445-13.402,1.23-30.787c0,0,0.049-0.121,0.073-0.158
		l21.017,13.227c-0.706,3.324-4.256,19.461-8.356,28.655C109.486,143.362,109.511,143.673,109.666,143.941z M161.573,198.409
		c-0.22,0-0.549,0-0.956,0c-2.021,0-7.058-0.122-10.224-1.279c-0.11-0.036-0.207-0.061-0.329-0.061c-0.024,0-0.049,0-0.073,0
		c-0.012,0-0.646,0.049-1.559,0.049c-3.105,0-5.358-0.572-5.858-1.462c0.024-0.536,0.135-2.082,0.719-3.36
		c0.073-0.159,0.098-0.354,0.073-0.524c-0.073-0.45-1.741-11.191-7.154-18.438c-3.642-4.872-6.583-10.449-2.595-24.966
		c0.128-0.39-0.055-0.816-0.383-1.035c-0.067-0.049-5.853-3.909-9.293-17.208c-0.584-2.277-1.339-5.456-2.131-8.731
		c-0.603-2.473-1.193-4.957-1.741-7.174l19.388-11.812c1.071,2.838,2.095,5.724,2.606,7.709c0.663,2.229,2.144,8.33,1.156,16.551
		c-0.036,0.365-0.158,1.145-0.304,2.07c-0.244,1.534-0.549,3.501-0.694,4.871c-0.378,3.422-0.231,10.09,1.047,13.207
		c0.39,0.962,0.975,1.857,1.656,2.874c1.462,2.187,3.276,4.908,3.946,9.919c0.499,3.715,0.17,8.343-0.128,12.836
		c-0.292,4.238-0.572,8.232-0.152,11.363c0.719,5.735,3.885,9.974,9.584,12.665c1.876,0.456,3.495,1.327,3.587,1.711
		C161.731,198.189,161.707,198.257,161.573,198.409z M103.899,45.157c0.356,0.38,0.344,0.959-0.037,1.327
		c-0.17,0.161-0.411,0.256-0.648,0.256c-0.244,0-0.493-0.101-0.673-0.28c-0.277-0.301-6.853-6.902-16.164-0.17
		c-0.417,0.308-1.005,0.207-1.303-0.204c-0.304-0.417-0.213-1.005,0.207-1.31C95.932,37.062,103.811,45.068,103.899,45.157z
		 M137.265,61.15c-0.268-0.438-0.134-1.011,0.305-1.285c7.088-4.433,3.922-14.41,3.885-14.504c-0.146-0.494,0.122-1.023,0.609-1.179
		c0.487-0.149,1.022,0.113,1.175,0.606c0.037,0.119,3.642,11.472-4.677,16.672c-0.14,0.106-0.335,0.137-0.499,0.137
		C137.752,61.592,137.447,61.437,137.265,61.15z M136.692,137.847c-0.085,0-0.183-0.013-0.268-0.037
		c-0.499-0.146-0.779-0.67-0.621-1.176c3.215-10.644-2.217-21.007-2.266-21.123c-0.243-0.444-0.073-1.011,0.378-1.248
		c0.45-0.256,1.022-0.079,1.267,0.384c0.243,0.444,5.857,11.125,2.411,22.523C137.472,137.591,137.106,137.847,136.692,137.847z
		 M105.196,114.269c0.448,0.244,0.624,0.816,0.381,1.255c-0.049,0.109-5.475,10.474-2.266,21.129
		c0.159,0.487-0.122,1.011-0.621,1.169c-0.088,0.025-0.176,0.037-0.268,0.037c-0.399,0-0.773-0.256-0.904-0.664
		c-3.449-11.393,2.168-22.079,2.411-22.523C104.173,114.196,104.749,114.013,105.196,114.269z M141.394,167.604
		c0.268,0.438,0.122,1.011-0.329,1.279c-0.146,0.091-0.305,0.128-0.475,0.128c-0.316,0-0.621-0.158-0.804-0.457
		c-5.127-8.629-2.509-14.876-2.388-15.132c0.189-0.475,0.743-0.669,1.212-0.487c0.476,0.207,0.694,0.756,0.487,1.23
		C139.019,154.396,136.79,159.84,141.394,167.604z M109.653,152.935c0.476-0.182,1.035,0.013,1.23,0.487
		c0.125,0.269,2.73,6.503-2.402,15.138c-0.167,0.305-0.472,0.463-0.804,0.463c-0.155,0-0.329-0.049-0.46-0.134
		c-0.45-0.256-0.6-0.828-0.344-1.278c4.601-7.758,2.387-13.201,2.289-13.434C108.975,153.69,109.194,153.142,109.653,152.935z"/>
</g>
<g>
</g>
<g>
</g>
<g>
</g>
<g>
</g>
<g>
</g>
<g>
</g>
<g>
</g>
<g>
</g>
<g>
</g>
<g>
</g>
<g>
</g>
<g>
</g>
<g>
</g>
<g>
</g>
<g>
</g>
</svg>
